<?xml version="1.0" encoding="utf-8"?>
<!-- Generator: Adobe Illustrator 15.0.0, SVG Export Plug-In . SVG Version: 6.00 Build 0)  -->
<!DOCTYPE svg PUBLIC "-//W3C//DTD SVG 1.1//EN" "http://www.w3.org/Graphics/SVG/1.1/DTD/svg11.dtd">
<svg version="1.1"
	 id="svg2" xmlns:dc="http://purl.org/dc/elements/1.1/" xmlns:cc="http://creativecommons.org/ns#" xmlns:rdf="http://www.w3.org/1999/02/22-rdf-syntax-ns#" xmlns:svg="http://www.w3.org/2000/svg" xmlns:sodipodi="http://sodipodi.sourceforge.net/DTD/sodipodi-0.dtd" xmlns:inkscape="http://www.inkscape.org/namespaces/inkscape" sodipodi:docname="Bac.Inf.Struktur.svg" inkscape:version="0.47 r22583"
	 xmlns="http://www.w3.org/2000/svg" xmlns:xlink="http://www.w3.org/1999/xlink" x="0px" y="0px" width="352.844px"
	 height="395.516px" viewBox="0 0 352.844 395.516" enable-background="new 0 0 352.844 395.516" xml:space="preserve">
<defs>
	
	
		<inkscape:perspective  inkscape:vp_z="744.09448 : 526.18109 : 1" inkscape:vp_y="0 : 1000 : 0" inkscape:vp_x="0 : 526.18109 : 1" sodipodi:type="inkscape:persp3d" id="perspective10" inkscape:persp3d-origin="372.04724 : 350.78739 : 1">
		</inkscape:perspective>
	
		<inkscape:perspective  inkscape:vp_z="1 : 0.5 : 1" inkscape:vp_y="0 : 1000 : 0" inkscape:vp_x="0 : 0.5 : 1" sodipodi:type="inkscape:persp3d" id="perspective2830" inkscape:persp3d-origin="0.5 : 0.33333333 : 1">
		</inkscape:perspective>
	
		<inkscape:perspective  inkscape:vp_z="1 : 0.5 : 1" inkscape:vp_y="0 : 1000 : 0" inkscape:vp_x="0 : 0.5 : 1" sodipodi:type="inkscape:persp3d" id="perspective2852" inkscape:persp3d-origin="0.5 : 0.33333333 : 1">
		</inkscape:perspective>
	
		<inkscape:perspective  inkscape:vp_z="1 : 0.5 : 1" inkscape:vp_y="0 : 1000 : 0" inkscape:vp_x="0 : 0.5 : 1" sodipodi:type="inkscape:persp3d" id="perspective2874" inkscape:persp3d-origin="0.5 : 0.33333333 : 1">
		</inkscape:perspective>
	
		<inkscape:perspective  inkscape:vp_z="1 : 0.5 : 1" inkscape:vp_y="0 : 1000 : 0" inkscape:vp_x="0 : 0.5 : 1" sodipodi:type="inkscape:persp3d" id="perspective2898" inkscape:persp3d-origin="0.5 : 0.33333333 : 1">
		</inkscape:perspective>
	
		<inkscape:perspective  inkscape:vp_z="1 : 0.5 : 1" inkscape:vp_y="0 : 1000 : 0" inkscape:vp_x="0 : 0.5 : 1" sodipodi:type="inkscape:persp3d" id="perspective2929" inkscape:persp3d-origin="0.5 : 0.33333333 : 1">
		</inkscape:perspective>
	
		<inkscape:perspective  inkscape:vp_z="1 : 0.5 : 1" inkscape:vp_y="0 : 1000 : 0" inkscape:vp_x="0 : 0.5 : 1" sodipodi:type="inkscape:persp3d" id="perspective2951" inkscape:persp3d-origin="0.5 : 0.33333333 : 1">
		</inkscape:perspective>
	
		<inkscape:perspective  inkscape:vp_z="1 : 0.5 : 1" inkscape:vp_y="0 : 1000 : 0" inkscape:vp_x="0 : 0.5 : 1" sodipodi:type="inkscape:persp3d" id="perspective3745" inkscape:persp3d-origin="0.5 : 0.33333333 : 1">
		</inkscape:perspective>
	
		<inkscape:perspective  inkscape:vp_z="1 : 0.5 : 1" inkscape:vp_y="0 : 1000 : 0" inkscape:vp_x="0 : 0.5 : 1" sodipodi:type="inkscape:persp3d" id="perspective3767" inkscape:persp3d-origin="0.5 : 0.33333333 : 1">
		</inkscape:perspective>
	
		<inkscape:perspective  inkscape:vp_z="1 : 0.5 : 1" inkscape:vp_y="0 : 1000 : 0" inkscape:vp_x="0 : 0.5 : 1" sodipodi:type="inkscape:persp3d" id="perspective3793" inkscape:persp3d-origin="0.5 : 0.33333333 : 1">
		</inkscape:perspective>
	
		<inkscape:perspective  inkscape:vp_z="1 : 0.5 : 1" inkscape:vp_y="0 : 1000 : 0" inkscape:vp_x="0 : 0.5 : 1" sodipodi:type="inkscape:persp3d" id="perspective3815" inkscape:persp3d-origin="0.5 : 0.33333333 : 1">
		</inkscape:perspective>
	
		<inkscape:perspective  inkscape:vp_z="1 : 0.5 : 1" inkscape:vp_y="0 : 1000 : 0" inkscape:vp_x="0 : 0.5 : 1" sodipodi:type="inkscape:persp3d" id="perspective3837" inkscape:persp3d-origin="0.5 : 0.33333333 : 1">
		</inkscape:perspective>
	
		<inkscape:perspective  inkscape:vp_z="1 : 0.5 : 1" inkscape:vp_y="0 : 1000 : 0" inkscape:vp_x="0 : 0.5 : 1" sodipodi:type="inkscape:persp3d" id="perspective3871" inkscape:persp3d-origin="0.5 : 0.33333333 : 1">
		</inkscape:perspective>
	
		<inkscape:perspective  inkscape:vp_z="1 : 0.5 : 1" inkscape:vp_y="0 : 1000 : 0" inkscape:vp_x="0 : 0.5 : 1" sodipodi:type="inkscape:persp3d" id="perspective3905" inkscape:persp3d-origin="0.5 : 0.33333333 : 1">
		</inkscape:perspective>
	
		<inkscape:perspective  inkscape:vp_z="1 : 0.5 : 1" inkscape:vp_y="0 : 1000 : 0" inkscape:vp_x="0 : 0.5 : 1" sodipodi:type="inkscape:persp3d" id="perspective3939" inkscape:persp3d-origin="0.5 : 0.33333333 : 1">
		</inkscape:perspective>
	
		<inkscape:perspective  inkscape:vp_z="1 : 0.5 : 1" inkscape:vp_y="0 : 1000 : 0" inkscape:vp_x="0 : 0.5 : 1" sodipodi:type="inkscape:persp3d" id="perspective3973" inkscape:persp3d-origin="0.5 : 0.33333333 : 1">
		</inkscape:perspective>
	
		<inkscape:perspective  inkscape:vp_z="1 : 0.5 : 1" inkscape:vp_y="0 : 1000 : 0" inkscape:vp_x="0 : 0.5 : 1" sodipodi:type="inkscape:persp3d" id="perspective4034" inkscape:persp3d-origin="0.5 : 0.33333333 : 1">
		</inkscape:perspective>
	
		<inkscape:perspective  inkscape:vp_z="1 : 0.5 : 1" inkscape:vp_y="0 : 1000 : 0" inkscape:vp_x="0 : 0.5 : 1" sodipodi:type="inkscape:persp3d" id="perspective4034-5" inkscape:persp3d-origin="0.5 : 0.33333333 : 1">
		</inkscape:perspective>
	
		<inkscape:perspective  inkscape:vp_z="1 : 0.5 : 1" inkscape:vp_y="0 : 1000 : 0" inkscape:vp_x="0 : 0.5 : 1" sodipodi:type="inkscape:persp3d" id="perspective4034-1" inkscape:persp3d-origin="0.5 : 0.33333333 : 1">
		</inkscape:perspective>
	
		<inkscape:perspective  inkscape:vp_z="1 : 0.5 : 1" inkscape:vp_y="0 : 1000 : 0" inkscape:vp_x="0 : 0.5 : 1" sodipodi:type="inkscape:persp3d" id="perspective4138" inkscape:persp3d-origin="0.5 : 0.33333333 : 1">
		</inkscape:perspective>
	
		<inkscape:perspective  inkscape:vp_z="1 : 0.5 : 1" inkscape:vp_y="0 : 1000 : 0" inkscape:vp_x="0 : 0.5 : 1" sodipodi:type="inkscape:persp3d" id="perspective4138-3" inkscape:persp3d-origin="0.5 : 0.33333333 : 1">
		</inkscape:perspective>
	
		<inkscape:perspective  inkscape:vp_z="1 : 0.5 : 1" inkscape:vp_y="0 : 1000 : 0" inkscape:vp_x="0 : 0.5 : 1" sodipodi:type="inkscape:persp3d" id="perspective4138-9" inkscape:persp3d-origin="0.5 : 0.33333333 : 1">
		</inkscape:perspective>
	
		<inkscape:perspective  inkscape:vp_z="1 : 0.5 : 1" inkscape:vp_y="0 : 1000 : 0" inkscape:vp_x="0 : 0.5 : 1" sodipodi:type="inkscape:persp3d" id="perspective4232" inkscape:persp3d-origin="0.5 : 0.33333333 : 1">
		</inkscape:perspective>
	
		<inkscape:perspective  inkscape:vp_z="1 : 0.5 : 1" inkscape:vp_y="0 : 1000 : 0" inkscape:vp_x="0 : 0.5 : 1" sodipodi:type="inkscape:persp3d" id="perspective4293" inkscape:persp3d-origin="0.5 : 0.33333333 : 1">
		</inkscape:perspective>
	
		<inkscape:perspective  inkscape:vp_z="1 : 0.5 : 1" inkscape:vp_y="0 : 1000 : 0" inkscape:vp_x="0 : 0.5 : 1" sodipodi:type="inkscape:persp3d" id="perspective4395" inkscape:persp3d-origin="0.5 : 0.33333333 : 1">
		</inkscape:perspective>
	
		<inkscape:perspective  inkscape:vp_z="1 : 0.5 : 1" inkscape:vp_y="0 : 1000 : 0" inkscape:vp_x="0 : 0.5 : 1" sodipodi:type="inkscape:persp3d" id="perspective4436" inkscape:persp3d-origin="0.5 : 0.33333333 : 1">
		</inkscape:perspective>
	
		<inkscape:perspective  inkscape:vp_z="1 : 0.5 : 1" inkscape:vp_y="0 : 1000 : 0" inkscape:vp_x="0 : 0.5 : 1" sodipodi:type="inkscape:persp3d" id="perspective4473" inkscape:persp3d-origin="0.5 : 0.33333333 : 1">
		</inkscape:perspective>
	
		<inkscape:perspective  inkscape:vp_z="1 : 0.5 : 1" inkscape:vp_y="0 : 1000 : 0" inkscape:vp_x="0 : 0.5 : 1" sodipodi:type="inkscape:persp3d" id="perspective4498" inkscape:persp3d-origin="0.5 : 0.33333333 : 1">
		</inkscape:perspective>
	
		<inkscape:perspective  inkscape:vp_z="1 : 0.5 : 1" inkscape:vp_y="0 : 1000 : 0" inkscape:vp_x="0 : 0.5 : 1" sodipodi:type="inkscape:persp3d" id="perspective4520" inkscape:persp3d-origin="0.5 : 0.33333333 : 1">
		</inkscape:perspective>
	
		<inkscape:perspective  inkscape:vp_z="1 : 0.5 : 1" inkscape:vp_y="0 : 1000 : 0" inkscape:vp_x="0 : 0.5 : 1" sodipodi:type="inkscape:persp3d" id="perspective4594" inkscape:persp3d-origin="0.5 : 0.33333333 : 1">
		</inkscape:perspective>
	
		<inkscape:perspective  inkscape:vp_z="1 : 0.5 : 1" inkscape:vp_y="0 : 1000 : 0" inkscape:vp_x="0 : 0.5 : 1" sodipodi:type="inkscape:persp3d" id="perspective4681" inkscape:persp3d-origin="0.5 : 0.33333333 : 1">
		</inkscape:perspective>
	
		<inkscape:perspective  inkscape:vp_z="1 : 0.5 : 1" inkscape:vp_y="0 : 1000 : 0" inkscape:vp_x="0 : 0.5 : 1" sodipodi:type="inkscape:persp3d" id="perspective4681-7" inkscape:persp3d-origin="0.5 : 0.33333333 : 1">
		</inkscape:perspective>
	
		<inkscape:perspective  inkscape:vp_z="1 : 0.5 : 1" inkscape:vp_y="0 : 1000 : 0" inkscape:vp_x="0 : 0.5 : 1" sodipodi:type="inkscape:persp3d" id="perspective4681-5" inkscape:persp3d-origin="0.5 : 0.33333333 : 1">
		</inkscape:perspective>
	
		<inkscape:perspective  inkscape:vp_z="1 : 0.5 : 1" inkscape:vp_y="0 : 1000 : 0" inkscape:vp_x="0 : 0.5 : 1" sodipodi:type="inkscape:persp3d" id="perspective4681-4" inkscape:persp3d-origin="0.5 : 0.33333333 : 1">
		</inkscape:perspective>
	
		<inkscape:perspective  inkscape:vp_z="1 : 0.5 : 1" inkscape:vp_y="0 : 1000 : 0" inkscape:vp_x="0 : 0.5 : 1" sodipodi:type="inkscape:persp3d" id="perspective4757" inkscape:persp3d-origin="0.5 : 0.33333333 : 1">
		</inkscape:perspective>
	
		<inkscape:perspective  inkscape:vp_z="1 : 0.5 : 1" inkscape:vp_y="0 : 1000 : 0" inkscape:vp_x="0 : 0.5 : 1" sodipodi:type="inkscape:persp3d" id="perspective4803" inkscape:persp3d-origin="0.5 : 0.33333333 : 1">
		</inkscape:perspective>
	
		<inkscape:perspective  inkscape:vp_z="1 : 0.5 : 1" inkscape:vp_y="0 : 1000 : 0" inkscape:vp_x="0 : 0.5 : 1" sodipodi:type="inkscape:persp3d" id="perspective4834" inkscape:persp3d-origin="0.5 : 0.33333333 : 1">
		</inkscape:perspective>
	
		<inkscape:perspective  inkscape:vp_z="1 : 0.5 : 1" inkscape:vp_y="0 : 1000 : 0" inkscape:vp_x="0 : 0.5 : 1" sodipodi:type="inkscape:persp3d" id="perspective4960" inkscape:persp3d-origin="0.5 : 0.33333333 : 1">
		</inkscape:perspective>
	
		<inkscape:perspective  inkscape:vp_z="1 : 0.5 : 1" inkscape:vp_y="0 : 1000 : 0" inkscape:vp_x="0 : 0.5 : 1" sodipodi:type="inkscape:persp3d" id="perspective5024" inkscape:persp3d-origin="0.5 : 0.33333333 : 1">
		</inkscape:perspective>
	
		<inkscape:perspective  inkscape:vp_z="1 : 0.5 : 1" inkscape:vp_y="0 : 1000 : 0" inkscape:vp_x="0 : 0.5 : 1" sodipodi:type="inkscape:persp3d" id="perspective5104" inkscape:persp3d-origin="0.5 : 0.33333333 : 1">
		</inkscape:perspective>
	
		<inkscape:perspective  inkscape:vp_z="1 : 0.5 : 1" inkscape:vp_y="0 : 1000 : 0" inkscape:vp_x="0 : 0.5 : 1" sodipodi:type="inkscape:persp3d" id="perspective5168" inkscape:persp3d-origin="0.5 : 0.33333333 : 1">
		</inkscape:perspective>
	
		<inkscape:perspective  inkscape:vp_z="1 : 0.5 : 1" inkscape:vp_y="0 : 1000 : 0" inkscape:vp_x="0 : 0.5 : 1" sodipodi:type="inkscape:persp3d" id="perspective5317" inkscape:persp3d-origin="0.5 : 0.33333333 : 1">
		</inkscape:perspective>
	
		<inkscape:perspective  inkscape:vp_z="1 : 0.5 : 1" inkscape:vp_y="0 : 1000 : 0" inkscape:vp_x="0 : 0.5 : 1" sodipodi:type="inkscape:persp3d" id="perspective5317-4" inkscape:persp3d-origin="0.5 : 0.33333333 : 1">
		</inkscape:perspective>
	
		<inkscape:perspective  inkscape:vp_z="1 : 0.5 : 1" inkscape:vp_y="0 : 1000 : 0" inkscape:vp_x="0 : 0.5 : 1" sodipodi:type="inkscape:persp3d" id="perspective5463" inkscape:persp3d-origin="0.5 : 0.33333333 : 1">
		</inkscape:perspective>
	
		<inkscape:perspective  inkscape:vp_z="1 : 0.5 : 1" inkscape:vp_y="0 : 1000 : 0" inkscape:vp_x="0 : 0.5 : 1" sodipodi:type="inkscape:persp3d" id="perspective5533" inkscape:persp3d-origin="0.5 : 0.33333333 : 1">
		</inkscape:perspective>
	
		<inkscape:perspective  inkscape:vp_z="1 : 0.5 : 1" inkscape:vp_y="0 : 1000 : 0" inkscape:vp_x="0 : 0.5 : 1" sodipodi:type="inkscape:persp3d" id="perspective5574" inkscape:persp3d-origin="0.5 : 0.33333333 : 1">
		</inkscape:perspective>
	
		<inkscape:perspective  inkscape:vp_z="1 : 0.5 : 1" inkscape:vp_y="0 : 1000 : 0" inkscape:vp_x="0 : 0.5 : 1" sodipodi:type="inkscape:persp3d" id="perspective5619" inkscape:persp3d-origin="0.5 : 0.33333333 : 1">
		</inkscape:perspective>
	
		<inkscape:perspective  inkscape:vp_z="1 : 0.5 : 1" inkscape:vp_y="0 : 1000 : 0" inkscape:vp_x="0 : 0.5 : 1" sodipodi:type="inkscape:persp3d" id="perspective5686" inkscape:persp3d-origin="0.5 : 0.33333333 : 1">
		</inkscape:perspective>
	
		<inkscape:perspective  inkscape:vp_z="1 : 0.5 : 1" inkscape:vp_y="0 : 1000 : 0" inkscape:vp_x="0 : 0.5 : 1" sodipodi:type="inkscape:persp3d" id="perspective5743" inkscape:persp3d-origin="0.5 : 0.33333333 : 1">
		</inkscape:perspective>
	
		<inkscape:perspective  inkscape:vp_z="1 : 0.5 : 1" inkscape:vp_y="0 : 1000 : 0" inkscape:vp_x="0 : 0.5 : 1" sodipodi:type="inkscape:persp3d" id="perspective5898" inkscape:persp3d-origin="0.5 : 0.33333333 : 1">
		</inkscape:perspective>
	
		<inkscape:perspective  inkscape:vp_z="1 : 0.5 : 1" inkscape:vp_y="0 : 1000 : 0" inkscape:vp_x="0 : 0.5 : 1" sodipodi:type="inkscape:persp3d" id="perspective5928" inkscape:persp3d-origin="0.5 : 0.33333333 : 1">
		</inkscape:perspective>
	
		<inkscape:perspective  inkscape:vp_z="1 : 0.5 : 1" inkscape:vp_y="0 : 1000 : 0" inkscape:vp_x="0 : 0.5 : 1" sodipodi:type="inkscape:persp3d" id="perspective5953" inkscape:persp3d-origin="0.5 : 0.33333333 : 1">
		</inkscape:perspective>
	
		<inkscape:perspective  inkscape:vp_z="1 : 0.5 : 1" inkscape:vp_y="0 : 1000 : 0" inkscape:vp_x="0 : 0.5 : 1" sodipodi:type="inkscape:persp3d" id="perspective5978" inkscape:persp3d-origin="0.5 : 0.33333333 : 1">
		</inkscape:perspective>
	
		<inkscape:perspective  inkscape:vp_z="1 : 0.5 : 1" inkscape:vp_y="0 : 1000 : 0" inkscape:vp_x="0 : 0.5 : 1" sodipodi:type="inkscape:persp3d" id="perspective7207" inkscape:persp3d-origin="0.5 : 0.33333333 : 1">
		</inkscape:perspective>
</defs>
<sodipodi:namedview  id="base" showguides="true" showgrid="true" inkscape:cy="161.93047" inkscape:cx="210.53316" inkscape:zoom="1.3760223" borderopacity="1.0" bordercolor="#666666" pagecolor="#ffffff" inkscape:window-maximized="1" inkscape:showpageshadow="false" inkscape:guide-bbox="true" inkscape:window-y="25" inkscape:window-x="0" inkscape:window-height="977" inkscape:window-width="1680" inkscape:current-layer="layer1" inkscape:document-units="cm" inkscape:pageshadow="2" inkscape:pageopacity="0.0">
	<inkscape:grid  type="xygrid" enabled="true" visible="true" id="grid2816" empspacing="5" snapvisiblegridlinesonly="true">
		</inkscape:grid>
	<sodipodi:guide  id="guide6215" position="-104.09177,130.90811" orientation="1,0"></sodipodi:guide>
</sodipodi:namedview>
<g id="layer1" transform="translate(0.90822642,-657.75431)" inkscape:label="Layer 1" inkscape:groupmode="layer">
	
		<rect id="rect2888" x="0.004" y="658.667" fill="#AACCFF" stroke="#000000" stroke-width="1.825" stroke-linejoin="round" width="351.02" height="393.691"/>
	<g id="flowRoot4653" transform="translate(0,308.2677)">
	</g>
	<path id="rect3781-4-0" fill="#D7EEF4" stroke="#000000" stroke-width="1.8082" stroke-linejoin="round" d="M13.534,755.098H338.97
		c4.012,0,7.264,3.252,7.264,7.264v114.16c0,4.011-3.252,7.263-7.264,7.263H13.534c-4.012,0-7.264-3.252-7.264-7.263v-114.16
		C6.271,758.35,9.523,755.098,13.534,755.098z"/>
	<text transform="matrix(1 0 0 1 11.9997 768.8044)" font-family="'Verdana'" font-size="12">Vertiefungsmodule</text>
	<text transform="matrix(1 0 0 1 307.008 768.5935)" font-family="'Verdana'" font-size="12">43 CP</text>
	<text transform="matrix(1 0 0 1 11.6736 783.3269)" font-family="'Verdana'" font-size="10">wählbar nach eigenen Interessen aus den Bereichen:</text>
	<path id="rect3783-1-0-2-5-3-5" fill="none" stroke="#000000" stroke-width="0.8858" stroke-linejoin="round" d="M12.017,790.447
		h327.106c0.75,0,1.357,0.607,1.357,1.356v9.679c0,0.749-0.607,1.356-1.357,1.356H12.017c-0.749,0-1.356-0.607-1.356-1.356v-9.679
		C10.66,791.054,11.268,790.447,12.017,790.447z"/>
	<text transform="matrix(1 0 0 1 12.821 800.4021)" font-family="'Verdana'" font-size="10">Betriebs-, Kommunikationssysteme und Programmiersprachen</text>
	<path id="rect3783-1-0-2-5-3-5-7" fill="none" stroke="#000000" stroke-width="0.8858" stroke-linejoin="round" d="M11.614,808.849
		h327.911c0.527,0,0.955,0.428,0.955,0.954v10.482c0,0.527-0.428,0.955-0.955,0.955H11.614c-0.527,0-0.954-0.428-0.954-0.955
		v-10.482C10.66,809.277,11.087,808.849,11.614,808.849z"/>
	<text transform="matrix(1 0 0 1 12.821 818.8044)" font-family="'Verdana'" font-size="10">Informationssysteme und Wissenverarbeitung</text>
	<path id="rect3783-1-0-2-5-3-5-6" fill="none" stroke="#000000" stroke-width="0.8858" stroke-linejoin="round" d="M11.212,827.252
		h328.716c0.305,0,0.553,0.247,0.553,0.552v11.287c0,0.305-0.248,0.553-0.553,0.553H11.212c-0.305,0-0.552-0.248-0.552-0.553
		v-11.287C10.66,827.499,10.907,827.252,11.212,827.252z"/>
	<text transform="matrix(1 0 0 1 13.8318 837.2058)" font-family="'Verdana'" font-size="10">Technische Systeme</text>
	<path id="rect3783-1-0-2-5-3-5-3" fill="none" stroke="#000000" stroke-width="0.8858" stroke-linejoin="round" d="M11.81,845.654
		H339.33c0.635,0,1.15,0.515,1.15,1.149v10.092c0,0.635-0.516,1.149-1.15,1.149H11.81c-0.635,0-1.149-0.515-1.149-1.149v-10.092
		C10.66,846.169,11.175,845.654,11.81,845.654z"/>
	<text transform="matrix(1 0 0 1 13.7243 855.6082)" font-family="'Verdana'" font-size="10">Angewandte Informatik</text>
	<path id="rect3783-1-0-2-5-3-5-2" fill="none" stroke="#000000" stroke-width="0.8858" stroke-linejoin="round" d="M11.408,864.055
		h328.324c0.413,0,0.748,0.335,0.748,0.748v10.896c0,0.413-0.335,0.748-0.748,0.748H11.408c-0.413,0-0.748-0.335-0.748-0.748
		v-10.896C10.66,864.39,10.995,864.055,11.408,864.055z"/>
	<text transform="matrix(1 0 0 1 13.2409 874.0105)" font-family="'Verdana'" font-size="10">Grundlagen der Informatik</text>
	<path id="rect3781-4" fill="#D7EEF4" stroke="#000000" stroke-width="1.811" stroke-linejoin="round" d="M11.093,892.542h330.318
		c2.663,0,4.821,2.158,4.821,4.82v119.442c0,2.663-2.158,4.821-4.821,4.821H11.093c-2.663,0-4.821-2.158-4.821-4.821V897.362
		C6.272,894.7,8.43,892.542,11.093,892.542z"/>
	<text transform="matrix(1 0 0 1 11.9997 905.6453)" font-family="'Verdana'" font-size="12">Anwendungsfach</text>
	<text transform="matrix(1 0 0 1 307.008 905.4343)" font-family="'Verdana'" font-size="12">24 CP</text>
	<path id="rect3783-1-0-2-5-3-5-1-8-0" fill="none" stroke="#000000" stroke-width="0.9175" d="M11.368,912.868H108.9
		c0.438,0,0.792,0.354,0.792,0.791v10.777c0,0.437-0.354,0.791-0.792,0.791H11.368c-0.438,0-0.792-0.354-0.792-0.791v-10.777
		C10.576,913.222,10.931,912.868,11.368,912.868z"/>
	<text transform="matrix(1 0 0 1 13.9997 922.8064)" font-family="'Verdana'" font-size="10">BWL</text>
	<path id="rect3783-1-0-2-5-3-5-7-7-4-6" fill="none" stroke="#000000" stroke-width="0.9175" d="M12.342,930.836h96.339
		c0.767,0,1.388,0.621,1.388,1.388v9.584c0,0.767-0.621,1.388-1.388,1.388H12.342c-0.767,0-1.388-0.621-1.388-1.388v-9.584
		C10.954,931.457,11.575,930.836,12.342,930.836z"/>
	<text transform="matrix(1 0 0 1 13.9997 940.7742)" font-family="'Verdana'" font-size="10">Biologie</text>
	<path id="rect3783-1-0-2-5-3-5-6-4-4-9" fill="none" stroke="#000000" stroke-width="0.9175" d="M11.942,948.803h97.141
		c0.545,0,0.986,0.441,0.986,0.986v10.387c0,0.545-0.441,0.986-0.986,0.986H11.942c-0.545,0-0.987-0.441-0.987-0.986V949.79
		C10.954,949.245,11.397,948.803,11.942,948.803z"/>
	<text transform="matrix(1 0 0 1 14.4196 958.7419)" font-family="'Verdana'" font-size="10">Chemie</text>
	<path id="rect3783-1-0-2-5-3-5-3-9-6-1" fill="none" stroke="#000000" stroke-width="0.9175" d="M12.537,966.771h95.948
		c0.875,0,1.583,0.709,1.583,1.583v9.193c0,0.875-0.708,1.583-1.583,1.583H12.537c-0.874,0-1.583-0.708-1.583-1.583v-9.193
		C10.954,967.48,11.663,966.771,12.537,966.771z"/>
	<text transform="matrix(1 0 0 1 14.4196 976.7097)" font-family="'Verdana'" font-size="10">Geographie</text>
	<path id="rect3783-1-0-2-5-3-5-2-8-4-7" fill="none" stroke="#000000" stroke-width="0.9175" d="M12.137,984.739h96.75
		c0.652,0,1.182,0.529,1.182,1.182v9.996c0,0.652-0.529,1.182-1.182,1.182h-96.75c-0.653,0-1.183-0.529-1.183-1.182v-9.996
		C10.954,985.268,11.484,984.739,12.137,984.739z"/>
	<text transform="matrix(1 0 0 1 14.4196 994.6775)" font-family="'Verdana'" font-size="10">Geophysik</text>
	<path id="rect3783-1-0-2-5-3-5-1-8-0-6" fill="none" stroke="#000000" stroke-width="0.9175" d="M125.047,912.868h97.531
		c0.437,0,0.791,0.354,0.791,0.791v10.777c0,0.437-0.354,0.791-0.791,0.791h-97.531c-0.438,0-0.792-0.354-0.792-0.791v-10.777
		C124.255,913.222,124.61,912.868,125.047,912.868z"/>
	<text transform="matrix(1 0 0 1 129.0334 922.8064)" font-family="'Verdana'" font-size="10">Linguistik</text>
	<path id="rect3783-1-0-2-5-3-5-7-7-4-6-5" fill="none" stroke="#000000" stroke-width="0.9175" d="M125.643,930.836h96.339
		c0.767,0,1.388,0.621,1.388,1.388v9.584c0,0.767-0.621,1.388-1.388,1.388h-96.339c-0.767,0-1.388-0.621-1.388-1.388v-9.584
		C124.255,931.457,124.876,930.836,125.643,930.836z"/>
	<text transform="matrix(1 0 0 1 129.0334 940.7742)" font-family="'Verdana'" font-size="10">Mathematik</text>
	<path id="rect3783-1-0-2-5-3-5-6-4-4-9-2" fill="none" stroke="#000000" stroke-width="0.9175" d="M125.242,948.803h97.141
		c0.545,0,0.986,0.441,0.986,0.986v10.387c0,0.545-0.441,0.986-0.986,0.986h-97.141c-0.545,0-0.987-0.441-0.987-0.986V949.79
		C124.255,949.245,124.697,948.803,125.242,948.803z"/>
	<text transform="matrix(1 0 0 1 129.0334 958.7419)" font-family="'Verdana'" font-size="10">Medizin</text>
	<path id="rect3783-1-0-2-5-3-5-3-9-6-1-2" fill="none" stroke="#000000" stroke-width="0.9175" d="M125.838,966.771h95.948
		c0.875,0,1.583,0.709,1.583,1.583v9.193c0,0.875-0.708,1.583-1.583,1.583h-95.948c-0.874,0-1.583-0.708-1.583-1.583v-9.193
		C124.255,967.48,124.964,966.771,125.838,966.771z"/>
	<text transform="matrix(1 0 0 1 129.0334 976.7097)" font-family="'Verdana'" font-size="10">Meteorologie</text>
	<path id="rect3783-1-0-2-5-3-5-2-8-4-7-5" fill="none" stroke="#000000" stroke-width="0.9175" d="M125.438,984.739h96.75
		c0.652,0,1.182,0.529,1.182,1.182v9.996c0,0.652-0.529,1.182-1.182,1.182h-96.75c-0.653,0-1.183-0.529-1.183-1.182v-9.996
		C124.255,985.268,124.784,984.739,125.438,984.739z"/>
	<text transform="matrix(1 0 0 1 129.0334 994.6775)" font-family="'Verdana'" font-size="10">Philosophie</text>
	<path id="rect3783-1-0-2-5-3-5-1-8-0-1" fill="none" stroke="#000000" stroke-width="0.9185" d="M242.178,912.868h97.492
		c0.438,0,0.794,0.355,0.794,0.794v10.805c0,0.438-0.355,0.793-0.794,0.793h-97.492c-0.438,0-0.793-0.355-0.793-0.793v-10.805
		C241.385,913.223,241.74,912.868,242.178,912.868z"/>
	<text transform="matrix(1.0752 0 0 1 244.9455 922.824)" font-family="'Verdana'" font-size="10">Physik</text>
	<path id="rect3783-1-0-2-5-3-5-7-7-4-6-7" fill="none" stroke="#000000" stroke-width="0.9185" d="M242.777,930.836h96.296
		c0.769,0,1.392,0.623,1.392,1.392v9.608c0,0.769-0.623,1.392-1.392,1.392h-96.296c-0.769,0-1.392-0.623-1.392-1.392v-9.608
		C241.385,931.459,242.008,930.836,242.777,930.836z"/>
	<text transform="matrix(1.0752 0 0 1 244.9455 940.7917)" font-family="'Verdana'" font-size="10">Psychologie</text>
	<path id="rect3783-1-0-2-5-3-5-6-4-4-9-7" fill="none" stroke="#000000" stroke-width="0.9185" d="M242.374,948.803h97.101
		c0.546,0,0.989,0.443,0.989,0.99v10.412c0,0.547-0.443,0.989-0.989,0.989h-97.101c-0.547,0-0.989-0.442-0.989-0.989v-10.412
		C241.385,949.247,241.827,948.803,242.374,948.803z"/>
	<text transform="matrix(1.0752 0 0 1 245.9172 958.7595)" font-family="'Verdana'" font-size="10">Romanistik</text>
	<path id="rect3783-1-0-2-5-3-5-2-2" fill="none" stroke="#000000" stroke-width="0.8858" d="M11.782,1002.691h327.911
		c0.527,0,0.955,0.427,0.955,0.954v10.482c0,0.527-0.428,0.955-0.955,0.955H11.782c-0.527,0-0.954-0.428-0.954-0.955v-10.482
		C10.828,1003.118,11.255,1002.691,11.782,1002.691z"/>
	<text transform="matrix(1 0 0 1 13.9997 1012.6453)" font-family="'Verdana'" font-size="10">Dein Anwendungsfach, auswählbar nach eigenen Interessen</text>
	<g id="g7150" transform="translate(5.253587,0)">
		<path id="rect3781-9-7" fill="#D7EEF4" stroke="#000000" stroke-width="1.7717" stroke-linejoin="round" d="M183.015,1030.363H339
			c1.104,0,1.999,0.896,1.999,1.999v11.983c0,1.104-0.896,1.999-1.999,1.999H183.015c-1.104,0-1.999-0.895-1.999-1.999v-11.983
			C181.016,1031.259,181.912,1030.363,183.015,1030.363z"/>
		<text transform="matrix(1 0 0 1 184.7642 1042.4675)" font-family="'Verdana'" font-size="12">Bachelorarbeit</text>
		<text transform="matrix(1 0 0 1 301.0162 1042.3621)" font-family="'Verdana'" font-size="12">15 CP</text>
	</g>
	<g id="g7143" transform="translate(-4.225816,0)">
		<path id="rect3781-9-7-7" fill="#D7EEF4" stroke="#000000" stroke-width="1.7717" stroke-linejoin="round" d="M12.477,1030.363
			h155.984c1.104,0,1.999,0.896,1.999,1.999v11.983c0,1.104-0.896,1.999-1.999,1.999H12.477c-1.104,0-1.999-0.895-1.999-1.999
			v-11.983C10.478,1031.259,11.373,1030.363,12.477,1030.363z"/>
		<text transform="matrix(1 0 0 1 14.2075 1042.4675)" font-family="'Verdana'" font-size="12">Softskills</text>
		<text transform="matrix(1 0 0 1 138.1001 1042.3621)" font-family="'Verdana'" font-size="12">5 CP</text>
	</g>
	<text transform="matrix(1 0 0 1 9.2614 675.1765)" font-family="'Verdana'" font-size="12">Bachelor Informatik: Struktur</text>
	<path id="rect3781" fill="#D7EEF4" stroke="#000000" stroke-width="1.8203" stroke-linejoin="round" d="M9.914,682.986h331.199
		c2.417,0,4.376,1.959,4.376,4.376v54.6c0,2.417-1.959,4.376-4.376,4.376H9.914c-2.417,0-4.376-1.959-4.376-4.376v-54.6
		C5.538,684.945,7.497,682.986,9.914,682.986z"/>
	<text transform="matrix(1 0 0 1 10.9157 695.8855)" font-family="'Verdana'" font-size="12">Basismodule</text>
	<text transform="matrix(1 0 0 1 306.2697 695.6746)" font-family="'Verdana'" font-size="12">93 CP</text>
	<path id="rect3783-1-0-2-1" fill="none" stroke="#000000" stroke-width="0.8858" d="M181.659,702.592h72.123
		c0.979,0,1.771,0.793,1.771,1.771v34.23c0,0.978-0.792,1.771-1.771,1.771h-72.123c-0.978,0-1.771-0.793-1.771-1.771v-34.23
		C179.889,703.385,180.682,702.592,181.659,702.592z"/>
	<text transform="matrix(1 0 0 1 182.4182 713.6853)" font-family="'Verdana'" font-size="9.4268">Theoretische</text>
	<text transform="matrix(1 0 0 1 182.4182 725.4695)" font-family="'Verdana'" font-size="9.4268">Grundlagen</text>
	<text transform="matrix(1 0 0 1 226.0002 738.3621)" font-family="'Verdana'" font-size="9.4268">23 CP</text>
	<path id="rect3783-1-0-2-7" fill="none" stroke="#000000" stroke-width="0.8858" d="M97.244,702.592h72.124
		c0.978,0,1.771,0.793,1.771,1.771v34.23c0,0.978-0.793,1.771-1.771,1.771H97.244c-0.978,0-1.77-0.793-1.77-1.771v-34.23
		C95.475,703.385,96.267,702.592,97.244,702.592z"/>
	<text transform="matrix(1 0 0 1 98.0031 713.6853)" font-family="'Verdana'" font-size="9.4268">Technische</text>
	<text transform="matrix(1 0 0 1 98.0031 725.4695)" font-family="'Verdana'" font-size="9.4268">Grundlagen</text>
	<text transform="matrix(1 0 0 1 140.9997 738.3621)" font-family="'Verdana'" font-size="9.4268">16 CP</text>
	<path id="rect3783-1-0-2-5" fill="none" stroke="#000000" stroke-width="0.8858" d="M12.83,702.592h72.123
		c0.978,0,1.771,0.793,1.771,1.771v34.23c0,0.978-0.793,1.771-1.771,1.771H12.83c-0.978,0-1.771-0.793-1.771-1.771v-34.23
		C11.06,703.385,11.853,702.592,12.83,702.592z"/>
	<text transform="matrix(1 0 0 1 13.5881 713.6853)" font-family="'Verdana'" font-size="9.4268">Praktische</text>
	<text transform="matrix(1 0 0 1 13.5881 725.4695)" font-family="'Verdana'" font-size="9.4268">Grundlagen</text>
	<text transform="matrix(1 0 0 1 56.9997 738.3621)" font-family="'Verdana'" font-size="9.4268">27 CP</text>
	<path id="rect3783-1-0-2" fill="none" stroke="#000000" stroke-width="0.8858" d="M266.074,702.592h72.123
		c0.978,0,1.771,0.793,1.771,1.771v34.23c0,0.978-0.793,1.771-1.771,1.771h-72.123c-0.978,0-1.771-0.793-1.771-1.771v-34.23
		C264.304,703.385,265.097,702.592,266.074,702.592z"/>
	<text transform="matrix(1 0 0 1 266.8322 713.6853)" font-family="'Verdana'" font-size="9.4268">Mathematische</text>
	<text transform="matrix(1 0 0 1 266.8322 725.4695)" font-family="'Verdana'" font-size="9.4268">Grundlagen</text>
	<text transform="matrix(1 0 0 1 310.0002 738.3621)" font-family="'Verdana'" font-size="9.4268">27 CP</text>
	<g id="g7227" transform="translate(-10,-2.0321467)">
		<path id="rect3783-1-0-2-5-3-5-6-4-4-9-7-2" fill="none" stroke="#000000" stroke-width="0.9185" d="M252.374,968.804h97.101
			c0.546,0,0.989,0.442,0.989,0.989v10.412c0,0.547-0.443,0.989-0.989,0.989h-97.101c-0.547,0-0.989-0.442-0.989-0.989v-10.412
			C251.385,969.247,251.827,968.804,252.374,968.804z"/>
		<text transform="matrix(1.0752 0 0 1 255.9172 978.7594)" font-family="'Verdana'" font-size="10">VWL</text>
	</g>
</g>
</svg>
